%
M48
M72
T01C0.01100
T02C0.01181
T03C0.01969
T04C0.02362
T05C0.02400
T06C0.02756
T07C0.03150
T08C0.03200
T09C0.03543
T10C0.03600
T11C0.03900
T12C0.03937
T13C0.04000
T14C0.04400
T15C0.05118
T16C0.05512
T17C0.05900
T18C0.06299
T19C0.09843
T20C0.14567
%
T01
X438280Y359390
X575413Y552490
X603383Y563895
X767009Y316918
X869882Y310228
T02
X316666Y191287
X341501Y251775
X418654Y242050
X422794Y244451
X474193Y199661
X596901Y232634
X624266Y276845
X563232Y318117
X556376Y337948
X553921Y356610
X562261Y356116
X586407Y346708
X594762Y337948
X619275Y350600
X619610Y356282
X615242Y361078
X635361Y361078
X646677Y356649
X651608Y341716
X702352Y303755
X713776Y303799
X710516Y288380
X711864Y259235
X680392Y267574
X662183Y229188
X676031Y221310
X673502Y217869
X662183Y213932
X659338Y209595
X654317Y205816
X738959Y231776
X742504Y231776
X746101Y231725
X746060Y245162
X765578Y285249
X775696Y279560
X781874Y293206
X795821Y296842
X803922Y287226
X800710Y284698
X797182Y282065
X807515Y289783
X810387Y307773
X807847Y310244
X817595Y316254
X825754Y308808
X834919Y315802
X843285Y309405
X859518Y300008
X863107Y297468
X870834Y292304
X873854Y289801
X876898Y287223
X879622Y284601
X880059Y266586
X883408Y265259
X886365Y261442
X876356Y264930
X847653Y282105
X867157Y307774
X841919Y325991
X832696Y329114
X846872Y344929
X875157Y356720
X901356Y361570
X905284Y313397
X947219Y271008
X931030Y245307
X966057Y328620
X1015658Y350436
X1020478Y350591
X1053378Y369491
X1068039Y343303
X1012085Y397987
X1053178Y432344
X1021208Y437885
X1018974Y449169
X985610Y480002
X971730Y509208
X965825Y509208
X942901Y517375
X934821Y525448
X932160Y549733
X954214Y554947
X990001Y573312
X998305Y595822
X1013889Y559456
X1019959Y532338
X1026241Y511775
X1053940Y542673
X919394Y629272
X927931Y652909
X907754Y667180
X926421Y699658
X940136Y719921
X949190Y715156
X975173Y724171
X972149Y750083
X964631Y749781
X952442Y754845
X889545Y740015
X850667Y715901
X839237Y711147
X815486Y723810
X818570Y747076
X841561Y734578
X791981Y718642
X775924Y714635
X756045Y705954
X739589Y714349
X739599Y737699
X765301Y742375
X790457Y705006
X747101Y661375
X737701Y665575
X727701Y656975
X719197Y648480
X699723Y637386
X681396Y647552
X656701Y647375
X621361Y693592
X625497Y700073
X595254Y722299
X614193Y724999
X662101Y736175
X687821Y708896
X767701Y635375
X767701Y618575
X767531Y601187
X778812Y603907
X791498Y617207
X798994Y612062
X792207Y627647
X788659Y631255
X782684Y648831
X815697Y629272
X853831Y584192
X859936Y579634
X898501Y570975
X906985Y565589
X893301Y557775
X834101Y514175
X818101Y481375
X823108Y479188
X820532Y466884
X781623Y448252
X777120Y448038
X763965Y439005
X760812Y459687
X777230Y465129
X720863Y452493
X716977Y461314
X712980Y465085
X711980Y482267
X723299Y486696
X724700Y507477
X720746Y509208
X714143Y507805
X704506Y508716
X699117Y507424
X680884Y505271
X701771Y490725
X688901Y477375
X690501Y456975
X700389Y452121
X690501Y420175
X639607Y452474
X635035Y480169
X624107Y492933
X609936Y507200
X596730Y517574
X591317Y522003
X573108Y517574
X582460Y499157
X534255Y506944
X524901Y512175
X520073Y502265
X479548Y502326
X461356Y502522
X404696Y527052
X389715Y532082
X382365Y537546
X359772Y567631
X342769Y588921
X312158Y567669
X315202Y559221
X320438Y551053
X378214Y615011
X404724Y608088
X418389Y615152
X427931Y606157
X420532Y597139
X408539Y581720
X412077Y579235
X421960Y570070
X457588Y563073
X458017Y557832
X463978Y581263
X457594Y582530
X460567Y591415
X502261Y601391
X502143Y575861
X500898Y547916
X565234Y570232
X611447Y557117
X638036Y567476
X650372Y562850
X635800Y537875
X635800Y517974
X643974Y503302
X652341Y508716
X680392Y528893
X706966Y532338
X729112Y543165
X684821Y559897
X687281Y596314
X698600Y606157
X727583Y618835
X737516Y620393
X778817Y571216
X780293Y532338
X771435Y525940
X793089Y523972
X793089Y513637
X735828Y507682
X811371Y403546
X816709Y398892
X826706Y396086
X841672Y382038
X772911Y356649
X763420Y352021
X745887Y352006
X724383Y352184
X774005Y329229
X749744Y288376
X797173Y264514
X800710Y264057
X803922Y262635
X807517Y261262
X620313Y404684
X584044Y422594
X566686Y414194
X559869Y435976
X524880Y412207
X512589Y436153
X508717Y445375
X493745Y426254
X488534Y425878
X483630Y427345
X458799Y433321
X412369Y386680
X407657Y390618
X376816Y381899
X335901Y386975
X297692Y385731
X323447Y428565
X334466Y431714
X385964Y430639
X389707Y459439
X394336Y465281
X534832Y369175
X534846Y369161
X556643Y369161
X586396Y371905
X526053Y344592
X488970Y357788
X484968Y354507
X473738Y359251
X458664Y355115
X476809Y343918
X467055Y334164
X428267Y343579
X407579Y334152
X335901Y331975
X296111Y327882
X312342Y634004
X382532Y644062
X385008Y640350
X403995Y643258
X403515Y647429
X410027Y642960
X425239Y663050
X452723Y673707
X454998Y652909
X458755Y634284
X486979Y653297
X478620Y665704
X514360Y664605
X522203Y636797
X535938Y698587
X530310Y700708
X518962Y725137
X546533Y728204
X484526Y734602
X478012Y733528
X476234Y736866
X478004Y739786
X476307Y743137
X452455Y724391
X434329Y725251
X413370Y729248
X463519Y700183
X470239Y698026
X481497Y708877
X478950Y711735
X481399Y714707
X478599Y717846
X388320Y672687
X384724Y655917
X335357Y746769
X905435Y465915
T03
X839907Y298628
X839907Y293628
X839907Y288628
X834907Y288628
X834907Y293628
X834907Y298628
X829907Y298628
X829907Y293628
X829907Y288628
X496131Y384238
X496131Y389238
X496131Y394238
X496131Y399238
X496131Y404238
X491131Y404238
X486131Y404238
X481131Y404238
X476131Y404238
X471131Y404238
X466131Y404238
X461131Y404238
X456131Y404238
X451131Y404238
X446131Y404238
X446131Y399238
X451131Y399238
X456131Y399238
X461131Y399238
X466131Y399238
X471131Y399238
X476131Y399238
X481131Y399238
X486131Y399238
X491131Y399238
X491131Y394238
X486131Y394238
X481131Y394238
X476131Y394238
X471131Y394238
X466131Y394238
X461131Y394238
X456131Y394238
X451131Y394238
X446131Y394238
X446131Y389238
X451131Y389238
X456131Y389238
X461131Y389238
X466131Y389238
X471131Y389238
X476131Y389238
X481131Y389238
X486131Y389238
X491131Y389238
X491131Y384238
X486131Y384238
X481131Y384238
X476131Y384238
X471131Y384238
X466131Y384238
X461131Y384238
X456131Y384238
X451131Y384238
X446131Y384238
X488709Y510695
X478895Y539965
X1029350Y695260
X1039748Y695272
X1049592Y695561
T04
X626227Y570372
X626189Y507646
X590825Y492968
X394402Y433099
X621027Y330964
X645412Y335115
X756139Y311828
X760435Y316395
X809240Y325517
X854386Y321092
X875265Y352109
X930968Y306392
X930945Y298032
X417590Y688758
T05
X1028693Y262573
X1079353Y623343
T06
X422101Y348975
T07
X425301Y359775
X392261Y351268
X349146Y353350
X349097Y344878
X349001Y336406
X349097Y327934
X349049Y319366
X349110Y310934
X349030Y302382
X349110Y293991
X349151Y285438
X349110Y276966
X349110Y268454
X349070Y361845
X349070Y370358
X349151Y378829
X348952Y440391
X349097Y448863
X349049Y457431
X349049Y465903
X349001Y474375
X349049Y482798
X348952Y491318
X349030Y499855
X348949Y508327
X349030Y516879
X349030Y525351
X349030Y533782
X348989Y542214
X349070Y550726
X348989Y559198
X348989Y567669
X348989Y576141
X349110Y584653
X349030Y593206
X349070Y601637
X349030Y610069
X349110Y618581
X349070Y627133
X349030Y635565
X336501Y610175
X408495Y629129
X463075Y623053
X460321Y670656
X479366Y700471
X520081Y672253
X546990Y705112
X569482Y702479
X630386Y695283
X705213Y714851
X709701Y700291
X720692Y693533
X772996Y698663
X817195Y698128
X847392Y709319
X840736Y742881
X717700Y735410
X485556Y741668
X419088Y740667
X609398Y568758
X611284Y518317
X547701Y519510
X504914Y517436
X557014Y473309
X480198Y434528
X574940Y376529
X598560Y374398
X566573Y324034
X506101Y324213
X470597Y347977
X430521Y516290
X833468Y562604
X838830Y538255
X899390Y530837
X906861Y547094
X903177Y577628
X966236Y582257
X978611Y582461
X1015198Y573812
X1049540Y554294
X1040150Y539727
X1065434Y573014
X1065377Y582975
X1065495Y593175
X1065434Y603192
X1065453Y613175
X1065434Y623234
X1065437Y633272
X1065555Y643472
X1065494Y653489
X1065513Y663472
X1065494Y673531
X1065437Y683492
X1065555Y693692
X1065494Y703709
X1065513Y713692
X1065494Y723751
X956838Y354768
X915314Y292801
T08
X922501Y346775
X922501Y356775
X798080Y477794
X788080Y477794
X778080Y477794
X661901Y478575
X651901Y478575
X795042Y586369
X805042Y586369
X815042Y586369
X855194Y596173
X865194Y596173
X875194Y596173
X885194Y596173
X895194Y596173
X905194Y596173
X922701Y588575
X932701Y588575
X918701Y743375
X908701Y743375
X667901Y701375
X657901Y701375
X572438Y730478
X562438Y720478
X562438Y740478
X424489Y549548
X434489Y539548
X424489Y529548
X477901Y324175
X487901Y324175
X601501Y257375
X615501Y257375
X639101Y250575
X649101Y250575
X620701Y206975
X606701Y206975
T09
X601685Y271692
X619337Y272905
X550175Y309667
X543232Y272092
X461701Y348975
X401285Y309591
X294805Y293974
X284874Y303905
X321799Y403951
X327261Y412645
X451228Y438331
X476420Y426782
X461160Y485276
X599701Y635375
X858322Y737111
X875645Y737111
X986508Y308940
X1026101Y308975
X1052663Y309401
X835002Y275744
X382175Y211639
T10
X529996Y441835
X529996Y451835
X539996Y451835
X549996Y451835
X549996Y441835
X539996Y441835
X542883Y664287
X552883Y664287
X562883Y664287
X562883Y674287
X552883Y674287
X542883Y674287
X1023086Y609218
X1023086Y599218
X1033086Y599218
X1033086Y609218
X1043086Y609218
X1043086Y599218
X1045144Y396446
X1045144Y386446
X1035144Y386446
X1035144Y396446
X1025144Y396446
X1025144Y386446
T11
X1006690Y386625
X996690Y386625
X986690Y386625
X976690Y386625
X966690Y386625
X956690Y386625
X946690Y386625
X936690Y386625
X926690Y386625
X916690Y386625
X906690Y386625
X896690Y386625
X886690Y386625
X876690Y386625
X866690Y386625
X856690Y386625
X846690Y386625
X836690Y386625
X826690Y386625
X816690Y386625
X755314Y386189
X745314Y386189
X735314Y386189
X725314Y386189
X715314Y386189
X705314Y386189
X695314Y386189
X685314Y386189
X675314Y386189
X665314Y386189
X655314Y386189
X645314Y386189
X635314Y386189
X625314Y386189
X615314Y386189
X605314Y386189
X595314Y386189
X585314Y386189
X575314Y386189
X565314Y386189
X565314Y446189
X575314Y446189
X585314Y446189
X595314Y446189
X605314Y446189
X615314Y446189
X625314Y446189
X635314Y446189
X645314Y446189
X655314Y446189
X665314Y446189
X675314Y446189
X685314Y446189
X695314Y446189
X705314Y446189
X715314Y446189
X725314Y446189
X735314Y446189
X745314Y446189
X755314Y446189
X816690Y446625
X826690Y446625
X836690Y446625
X846690Y446625
X856690Y446625
X866690Y446625
X876690Y446625
X886690Y446625
X896690Y446625
X906690Y446625
X916690Y446625
X926690Y446625
X936690Y446625
X946690Y446625
X956690Y446625
X966690Y446625
X976690Y446625
X986690Y446625
X996690Y446625
X1006690Y446625
X1003261Y615823
X1013261Y615823
X993261Y615823
X983261Y615823
X973261Y615823
X963261Y615823
X953261Y615823
X943261Y615823
X933261Y615823
X923261Y615823
X913261Y615823
X903261Y615823
X893261Y615823
X883261Y615823
X873261Y615823
X863261Y615823
X853261Y615823
X843261Y615823
X833261Y615823
X823261Y615823
X772549Y611534
X762549Y611534
X752549Y611534
X742549Y611534
X732549Y611534
X722549Y611534
X712549Y611534
X702549Y611534
X692549Y611534
X682549Y611534
X672549Y611534
X662549Y611534
X652549Y611534
X642549Y611534
X632549Y611534
X622549Y611534
X612549Y611534
X602549Y611534
X592549Y611534
X582549Y611534
X582549Y671534
X592549Y671534
X602549Y671534
X612549Y671534
X622549Y671534
X632549Y671534
X642549Y671534
X652549Y671534
X662549Y671534
X672549Y671534
X682549Y671534
X692549Y671534
X702549Y671534
X712549Y671534
X722549Y671534
X732549Y671534
X742549Y671534
X752549Y671534
X762549Y671534
X772549Y671534
X823261Y675823
X833261Y675823
X843261Y675823
X853261Y675823
X863261Y675823
X873261Y675823
X883261Y675823
X893261Y675823
X903261Y675823
X913261Y675823
X923261Y675823
X933261Y675823
X943261Y675823
X953261Y675823
X963261Y675823
X973261Y675823
X983261Y675823
X993261Y675823
X1003261Y675823
X1013261Y675823
T12
X378623Y669930
X378664Y695588
X349024Y682785
X349058Y657163
X369128Y635546
X359110Y627062
X369128Y618544
X359110Y610094
X369128Y601644
X359110Y593126
X369060Y584642
X359076Y576192
X369094Y567674
X359076Y559224
X369094Y550672
X359101Y542255
X369045Y533744
X359101Y525273
X369086Y516842
X359101Y508331
X369045Y499860
X359060Y491307
X369086Y482796
X359060Y474325
X369112Y465891
X359125Y457350
X369112Y448866
X359125Y440411
X369162Y378786
X359178Y370268
X369128Y361852
X359110Y353334
X369128Y344884
X359110Y336434
X369128Y327950
X359178Y319330
X369195Y310880
X359144Y302362
X369195Y293912
X359178Y285462
X369195Y276944
X359144Y268426
T13
X531201Y390175
X549001Y390175
X549001Y415775
X531201Y415775
X540801Y606575
X558601Y606575
X558601Y632175
X540801Y632175
X792901Y662975
X792901Y672975
X792901Y682975
X876301Y554375
X886301Y554375
X886301Y544375
X886301Y534375
X886301Y524375
X876301Y524375
X876301Y534375
X876301Y544375
X1028401Y460575
X1046201Y460575
X1046201Y434975
X1028401Y434975
X1011101Y371775
X1001101Y371775
X991101Y371775
X1027201Y645375
X1045001Y645375
X1045001Y670975
X1027201Y670975
T14
X577185Y244238
X577185Y204238
T15
X428817Y200673
X408817Y200673
X805217Y198273
X825217Y198273
X845217Y198273
X865217Y198273
X1012067Y210364
X1012067Y222175
X1012067Y233986
X1032934Y233986
X1032934Y222175
X1032934Y210364
X1070402Y376492
X1070402Y396492
X1070402Y416492
X1070402Y439692
X1070402Y459692
X1070402Y479692
X544190Y537459
X544190Y549270
X544190Y561081
X523324Y561081
X523324Y549270
X523324Y537459
T16
X547701Y244575
X547701Y224975
T17
X563272Y204123
X503272Y204123
X515612Y263658
X575612Y263658
T18
X453946Y243959
X453830Y225092
X453946Y207069
T19
X372046Y246773
X371977Y714489
T20
X341239Y724185
X341239Y225114
M30
