G75*
%MOIN*%
%OFA0B0*%
%FSLAX25Y25*%
%IPPOS*%
%LPD*%
%AMOC8*
5,1,8,0,0,1.08239X$1,22.5*
%
%ADD10R,0.06700X0.06700*%
%ADD11C,0.06700*%
%ADD12C,0.08400*%
%ADD13R,0.06706X0.05918*%
%ADD14R,0.05918X0.06706*%
%ADD15C,0.07400*%
%ADD16C,0.09650*%
%ADD17R,0.02375X0.06706*%
%ADD18OC8,0.06400*%
%ADD19R,0.04769X0.04769*%
%ADD20C,0.06000*%
%ADD21C,0.10643*%
%ADD22C,0.15367*%
%ADD23C,0.10800*%
%ADD24C,0.06706*%
%ADD25R,0.20800X0.07800*%
%ADD26R,0.05918X0.07099*%
%ADD27R,0.07099X0.05918*%
%ADD28R,0.13398X0.07887*%
%ADD29C,0.08477*%
%ADD30R,0.09600X0.05600*%
%ADD31R,0.09461X0.14973*%
%ADD32C,0.05950*%
%ADD33R,0.03000X0.08600*%
%ADD34C,0.04769*%
%ADD35R,0.08400X0.15800*%
%ADD36R,0.36200X0.36600*%
%ADD37R,0.02900X0.07500*%
%ADD38R,0.08674X0.10643*%
%ADD39R,0.08674X0.13792*%
%ADD40R,0.02769X0.13005*%
%ADD41C,0.04343*%
%ADD42C,0.06800*%
%ADD43OC8,0.06800*%
%ADD44OC8,0.07100*%
%ADD45C,0.07100*%
%ADD46C,0.08674*%
%ADD47C,0.03581*%
%ADD48C,0.05800*%
%ADD49C,0.04000*%
%ADD50C,0.06115*%
%ADD51C,0.04762*%
%ADD52C,0.05156*%
%ADD53C,0.03500*%
%ADD54C,0.06400*%
%ADD55C,0.04800*%
%ADD56C,0.05550*%
%ADD57C,0.04369*%
D10*
X0565314Y0386189D03*
X0582549Y0611534D03*
X1013261Y0675823D03*
X1006690Y0446625D03*
D11*
X0996690Y0446625D03*
X0986690Y0446625D03*
X0976690Y0446625D03*
X0966690Y0446625D03*
X0956690Y0446625D03*
X0946690Y0446625D03*
X0936690Y0446625D03*
X0926690Y0446625D03*
X0916690Y0446625D03*
X0906690Y0446625D03*
X0896690Y0446625D03*
X0886690Y0446625D03*
X0876690Y0446625D03*
X0866690Y0446625D03*
X0856690Y0446625D03*
X0846690Y0446625D03*
X0836690Y0446625D03*
X0826690Y0446625D03*
X0816690Y0446625D03*
X0755314Y0446189D03*
X0745314Y0446189D03*
X0735314Y0446189D03*
X0725314Y0446189D03*
X0715314Y0446189D03*
X0705314Y0446189D03*
X0695314Y0446189D03*
X0685314Y0446189D03*
X0675314Y0446189D03*
X0665314Y0446189D03*
X0655314Y0446189D03*
X0645314Y0446189D03*
X0635314Y0446189D03*
X0625314Y0446189D03*
X0615314Y0446189D03*
X0605314Y0446189D03*
X0595314Y0446189D03*
X0585314Y0446189D03*
X0575314Y0446189D03*
X0565314Y0446189D03*
X0575314Y0386189D03*
X0585314Y0386189D03*
X0595314Y0386189D03*
X0605314Y0386189D03*
X0615314Y0386189D03*
X0625314Y0386189D03*
X0635314Y0386189D03*
X0645314Y0386189D03*
X0655314Y0386189D03*
X0665314Y0386189D03*
X0675314Y0386189D03*
X0685314Y0386189D03*
X0695314Y0386189D03*
X0705314Y0386189D03*
X0715314Y0386189D03*
X0725314Y0386189D03*
X0735314Y0386189D03*
X0745314Y0386189D03*
X0755314Y0386189D03*
X0816690Y0386625D03*
X0826690Y0386625D03*
X0836690Y0386625D03*
X0846690Y0386625D03*
X0856690Y0386625D03*
X0866690Y0386625D03*
X0876690Y0386625D03*
X0886690Y0386625D03*
X0896690Y0386625D03*
X0906690Y0386625D03*
X0916690Y0386625D03*
X0926690Y0386625D03*
X0936690Y0386625D03*
X0946690Y0386625D03*
X0956690Y0386625D03*
X0966690Y0386625D03*
X0976690Y0386625D03*
X0986690Y0386625D03*
X0996690Y0386625D03*
X1006690Y0386625D03*
X1003261Y0615823D03*
X1013261Y0615823D03*
X0993261Y0615823D03*
X0983261Y0615823D03*
X0973261Y0615823D03*
X0963261Y0615823D03*
X0953261Y0615823D03*
X0943261Y0615823D03*
X0933261Y0615823D03*
X0923261Y0615823D03*
X0913261Y0615823D03*
X0903261Y0615823D03*
X0893261Y0615823D03*
X0883261Y0615823D03*
X0873261Y0615823D03*
X0863261Y0615823D03*
X0853261Y0615823D03*
X0843261Y0615823D03*
X0833261Y0615823D03*
X0823261Y0615823D03*
X0772549Y0611534D03*
X0762549Y0611534D03*
X0752549Y0611534D03*
X0742549Y0611534D03*
X0732549Y0611534D03*
X0722549Y0611534D03*
X0712549Y0611534D03*
X0702549Y0611534D03*
X0692549Y0611534D03*
X0682549Y0611534D03*
X0672549Y0611534D03*
X0662549Y0611534D03*
X0652549Y0611534D03*
X0642549Y0611534D03*
X0632549Y0611534D03*
X0622549Y0611534D03*
X0612549Y0611534D03*
X0602549Y0611534D03*
X0592549Y0611534D03*
X0592549Y0671534D03*
X0582549Y0671534D03*
X0602549Y0671534D03*
X0612549Y0671534D03*
X0622549Y0671534D03*
X0632549Y0671534D03*
X0642549Y0671534D03*
X0652549Y0671534D03*
X0662549Y0671534D03*
X0672549Y0671534D03*
X0682549Y0671534D03*
X0692549Y0671534D03*
X0702549Y0671534D03*
X0712549Y0671534D03*
X0722549Y0671534D03*
X0732549Y0671534D03*
X0742549Y0671534D03*
X0752549Y0671534D03*
X0762549Y0671534D03*
X0772549Y0671534D03*
X0823261Y0675823D03*
X0833261Y0675823D03*
X0843261Y0675823D03*
X0853261Y0675823D03*
X0863261Y0675823D03*
X0873261Y0675823D03*
X0883261Y0675823D03*
X0893261Y0675823D03*
X0903261Y0675823D03*
X0913261Y0675823D03*
X0923261Y0675823D03*
X0933261Y0675823D03*
X0943261Y0675823D03*
X0953261Y0675823D03*
X0963261Y0675823D03*
X0973261Y0675823D03*
X0983261Y0675823D03*
X0993261Y0675823D03*
X1003261Y0675823D03*
D12*
X0978611Y0582461D03*
X0966236Y0582257D03*
X1015198Y0573812D03*
X1049540Y0554294D03*
X1040150Y0539727D03*
X0906861Y0547094D03*
X0899390Y0530837D03*
X0903177Y0577628D03*
X0838830Y0538255D03*
X0833468Y0562604D03*
X0720692Y0693533D03*
X0709701Y0700291D03*
X0705213Y0714851D03*
X0717700Y0735410D03*
X0772996Y0698663D03*
X0817195Y0698128D03*
X0847392Y0709319D03*
X0840736Y0742881D03*
X0630386Y0695283D03*
X0569482Y0702479D03*
X0546990Y0705112D03*
X0520081Y0672253D03*
X0479366Y0700471D03*
X0460321Y0670656D03*
X0408495Y0629129D03*
X0463075Y0623053D03*
X0547701Y0519510D03*
X0504914Y0517436D03*
X0557014Y0473309D03*
X0611284Y0518317D03*
X0609398Y0568758D03*
X0430521Y0516290D03*
X0480198Y0434528D03*
X0574940Y0376529D03*
X0598560Y0374398D03*
X0566573Y0324034D03*
X0506101Y0324213D03*
X0470597Y0347977D03*
X0915314Y0292801D03*
X0956838Y0354768D03*
X0419088Y0740667D03*
X0485556Y0741668D03*
D13*
X0926714Y0743800D03*
X0926714Y0751281D03*
X0936020Y0746773D03*
X0936020Y0739293D03*
X0441761Y0435789D03*
X0441761Y0428309D03*
X0657695Y0283552D03*
X0657695Y0276071D03*
X0683033Y0276501D03*
X0683033Y0283982D03*
X0842295Y0268241D03*
X0842295Y0260761D03*
X0992263Y0280558D03*
X0992263Y0288038D03*
X1024764Y0288024D03*
X1024764Y0280544D03*
D14*
X0721526Y0515162D03*
X0714046Y0515162D03*
X0701164Y0533413D03*
X0693684Y0533413D03*
X0685503Y0566965D03*
X0678023Y0566965D03*
X0670252Y0566974D03*
X0662772Y0566974D03*
D15*
X0577185Y0244238D03*
X0577185Y0204238D03*
D16*
X0567697Y0204123D02*
X0558847Y0204123D01*
X0507697Y0204123D02*
X0498847Y0204123D01*
X0511187Y0263658D02*
X0520037Y0263658D01*
X0571187Y0263658D02*
X0580037Y0263658D01*
D17*
X0933770Y0700850D03*
X0936329Y0700850D03*
X0938888Y0700850D03*
X0941447Y0700850D03*
X0944006Y0700850D03*
X0946565Y0700850D03*
X0949124Y0700850D03*
X0951683Y0700850D03*
X0954242Y0700850D03*
X0956801Y0700850D03*
X0959360Y0700850D03*
X0961919Y0700850D03*
X0964479Y0700850D03*
X0967038Y0700850D03*
X0967038Y0729394D03*
X0964479Y0729394D03*
X0961919Y0729394D03*
X0959360Y0729394D03*
X0956801Y0729394D03*
X0954242Y0729394D03*
X0951683Y0729394D03*
X0949124Y0729394D03*
X0946565Y0729394D03*
X0944006Y0729394D03*
X0941447Y0729394D03*
X0938888Y0729394D03*
X0936329Y0729394D03*
X0933770Y0729394D03*
D18*
X1023086Y0609218D03*
X1023086Y0599218D03*
X1033086Y0599218D03*
X1033086Y0609218D03*
X1043086Y0609218D03*
X1043086Y0599218D03*
X1045144Y0396446D03*
X1045144Y0386446D03*
X1035144Y0386446D03*
X1035144Y0396446D03*
X1025144Y0396446D03*
X1025144Y0386446D03*
X0562883Y0664287D03*
X0552883Y0664287D03*
X0542883Y0664287D03*
X0542883Y0674287D03*
X0552883Y0674287D03*
X0562883Y0674287D03*
X0549996Y0451835D03*
X0539996Y0451835D03*
X0529996Y0451835D03*
X0529996Y0441835D03*
X0539996Y0441835D03*
X0549996Y0441835D03*
D19*
X0496131Y0404238D03*
X0491131Y0404238D03*
X0486131Y0404238D03*
X0481131Y0404238D03*
X0476131Y0404238D03*
X0471131Y0404238D03*
X0466131Y0404238D03*
X0461131Y0404238D03*
X0456131Y0404238D03*
X0451131Y0404238D03*
X0446131Y0404238D03*
X0446131Y0399238D03*
X0451131Y0399238D03*
X0456131Y0399238D03*
X0461131Y0399238D03*
X0466131Y0399238D03*
X0471131Y0399238D03*
X0476131Y0399238D03*
X0481131Y0399238D03*
X0486131Y0399238D03*
X0491131Y0399238D03*
X0496131Y0399238D03*
X0496131Y0394238D03*
X0491131Y0394238D03*
X0486131Y0394238D03*
X0481131Y0394238D03*
X0476131Y0394238D03*
X0471131Y0394238D03*
X0466131Y0394238D03*
X0461131Y0394238D03*
X0456131Y0394238D03*
X0451131Y0394238D03*
X0446131Y0394238D03*
X0446131Y0389238D03*
X0451131Y0389238D03*
X0456131Y0389238D03*
X0461131Y0389238D03*
X0466131Y0389238D03*
X0471131Y0389238D03*
X0476131Y0389238D03*
X0481131Y0389238D03*
X0486131Y0389238D03*
X0491131Y0389238D03*
X0496131Y0389238D03*
X0496131Y0384238D03*
X0491131Y0384238D03*
X0486131Y0384238D03*
X0481131Y0384238D03*
X0476131Y0384238D03*
X0471131Y0384238D03*
X0466131Y0384238D03*
X0461131Y0384238D03*
X0456131Y0384238D03*
X0451131Y0384238D03*
X0446131Y0384238D03*
X0829907Y0298628D03*
X0834907Y0298628D03*
X0839907Y0298628D03*
X0839907Y0293628D03*
X0839907Y0288628D03*
X0834907Y0288628D03*
X0834907Y0293628D03*
X0829907Y0293628D03*
X0829907Y0288628D03*
D20*
X0798080Y0475194D02*
X0798080Y0480394D01*
X0788080Y0480394D02*
X0788080Y0475194D01*
X0778080Y0475194D02*
X0778080Y0480394D01*
X0795042Y0583769D02*
X0795042Y0588969D01*
X0805042Y0588969D02*
X0805042Y0583769D01*
X0815042Y0583769D02*
X0815042Y0588969D01*
X0855194Y0593573D02*
X0855194Y0598773D01*
X0865194Y0598773D02*
X0865194Y0593573D01*
X0875194Y0593573D02*
X0875194Y0598773D01*
X0885194Y0598773D02*
X0885194Y0593573D01*
X0895194Y0593573D02*
X0895194Y0598773D01*
X0905194Y0598773D02*
X0905194Y0593573D01*
X0575038Y0730478D02*
X0569838Y0730478D01*
X0565038Y0720478D02*
X0559838Y0720478D01*
X0559838Y0740478D02*
X0565038Y0740478D01*
X0427089Y0549548D02*
X0421889Y0549548D01*
X0431889Y0539548D02*
X0437089Y0539548D01*
X0427089Y0529548D02*
X0421889Y0529548D01*
D21*
X0371977Y0714489D03*
X0372046Y0246773D03*
D22*
X0341239Y0225114D03*
X0341239Y0724185D03*
D23*
X0378664Y0695588D03*
X0378623Y0669930D03*
X0349058Y0657163D03*
X0369128Y0635546D03*
X0359110Y0627062D03*
X0369128Y0618544D03*
X0359110Y0610094D03*
X0369128Y0601644D03*
X0359110Y0593126D03*
X0369060Y0584642D03*
X0359076Y0576192D03*
X0369094Y0567674D03*
X0359076Y0559224D03*
X0369094Y0550672D03*
X0359101Y0542255D03*
X0369045Y0533744D03*
X0359101Y0525273D03*
X0369086Y0516842D03*
X0359101Y0508331D03*
X0369045Y0499860D03*
X0359060Y0491307D03*
X0369086Y0482796D03*
X0359060Y0474325D03*
X0369112Y0465891D03*
X0359125Y0457350D03*
X0369112Y0448866D03*
X0359125Y0440411D03*
X0369162Y0378786D03*
X0359178Y0370268D03*
X0369128Y0361852D03*
X0359110Y0353334D03*
X0369128Y0344884D03*
X0359110Y0336434D03*
X0369128Y0327950D03*
X0359178Y0319330D03*
X0369195Y0310880D03*
X0359144Y0302362D03*
X0369195Y0293912D03*
X0359178Y0285462D03*
X0369195Y0276944D03*
X0359144Y0268426D03*
X0453946Y0243959D03*
X0453830Y0225092D03*
X0453946Y0207069D03*
X0547701Y0224975D03*
X0547701Y0244575D03*
X0349024Y0682785D03*
D24*
X0349030Y0635565D03*
X0349070Y0627133D03*
X0349110Y0618581D03*
X0349030Y0610069D03*
X0349070Y0601637D03*
X0349030Y0593206D03*
X0349110Y0584653D03*
X0348989Y0576141D03*
X0348989Y0567669D03*
X0348989Y0559198D03*
X0349070Y0550726D03*
X0348989Y0542214D03*
X0349030Y0533782D03*
X0349030Y0525351D03*
X0349030Y0516879D03*
X0348949Y0508327D03*
X0349030Y0499855D03*
X0348952Y0491318D03*
X0349049Y0482798D03*
X0349001Y0474375D03*
X0349049Y0465903D03*
X0349049Y0457431D03*
X0349097Y0448863D03*
X0348952Y0440391D03*
X0349151Y0378829D03*
X0349070Y0370358D03*
X0349070Y0361845D03*
X0349146Y0353350D03*
X0349097Y0344878D03*
X0349001Y0336406D03*
X0349097Y0327934D03*
X0349049Y0319366D03*
X0349110Y0310934D03*
X0349030Y0302382D03*
X0349110Y0293991D03*
X0349151Y0285438D03*
X0349110Y0276966D03*
X0349110Y0268454D03*
D25*
X0655146Y0584036D03*
X0693146Y0584036D03*
D26*
X0714190Y0554687D03*
X0721670Y0554687D03*
X0701238Y0524719D03*
X0693758Y0524719D03*
X0699214Y0515058D03*
X0706694Y0515058D03*
X0728445Y0515171D03*
X0735925Y0515171D03*
X0668901Y0375839D03*
X0661420Y0375839D03*
X0909611Y0706811D03*
X0917091Y0706811D03*
X0957151Y0744332D03*
X0964631Y0744332D03*
X0964669Y0736869D03*
X0972149Y0736869D03*
D27*
X0946398Y0742049D03*
X0946398Y0749530D03*
X0734546Y0537888D03*
X0734546Y0530408D03*
X0698862Y0419979D03*
X0698862Y0412498D03*
X0852757Y0268189D03*
X0852757Y0260709D03*
X0861906Y0268264D03*
X0861906Y0275744D03*
X0870112Y0268278D03*
X0870112Y0260797D03*
D28*
X1008325Y0273212D03*
X1039624Y0273284D03*
X1039624Y0295331D03*
X1008325Y0295260D03*
X0670260Y0291107D03*
X0670260Y0269060D03*
X0645480Y0269012D03*
X0645480Y0291059D03*
D29*
X0544190Y0537459D03*
X0544190Y0549270D03*
X0544190Y0561081D03*
X0523324Y0561081D03*
X0523324Y0549270D03*
X0523324Y0537459D03*
X1012067Y0233986D03*
X1012067Y0222175D03*
X1012067Y0210364D03*
X1032934Y0210364D03*
X1032934Y0222175D03*
X1032934Y0233986D03*
D30*
X0679550Y0411242D03*
X0679550Y0420342D03*
X0679550Y0429442D03*
D31*
X0655149Y0420342D03*
D32*
X1065434Y0573014D02*
X1070583Y0573014D01*
X1070526Y0582975D02*
X1065377Y0582975D01*
X1065495Y0593175D02*
X1070645Y0593175D01*
X1070584Y0603192D02*
X1065434Y0603192D01*
X1065453Y0613175D02*
X1070603Y0613175D01*
X1070584Y0623234D02*
X1065434Y0623234D01*
X1065437Y0633272D02*
X1070586Y0633272D01*
X1070705Y0643472D02*
X1065555Y0643472D01*
X1065494Y0653489D02*
X1070643Y0653489D01*
X1070663Y0663472D02*
X1065513Y0663472D01*
X1065494Y0673531D02*
X1070643Y0673531D01*
X1070586Y0683492D02*
X1065437Y0683492D01*
X1065555Y0693692D02*
X1070705Y0693692D01*
X1070644Y0703709D02*
X1065494Y0703709D01*
X1065513Y0713692D02*
X1070663Y0713692D01*
X1070644Y0723751D02*
X1065494Y0723751D01*
D33*
X0681630Y0552668D03*
X0676630Y0552668D03*
X0671630Y0552668D03*
X0666630Y0552668D03*
X0661630Y0552668D03*
X0656630Y0552668D03*
X0651630Y0552668D03*
X0646630Y0552668D03*
X0641630Y0552668D03*
X0641630Y0515668D03*
X0646630Y0515668D03*
X0651630Y0515668D03*
X0656630Y0515668D03*
X0661630Y0515668D03*
X0666630Y0515668D03*
X0671630Y0515668D03*
X0676630Y0515668D03*
X0681630Y0515668D03*
D34*
X1029350Y0693275D02*
X1029350Y0697244D01*
X1039748Y0697256D02*
X1039748Y0693288D01*
X1049592Y0693576D02*
X1049592Y0697545D01*
D35*
X0975113Y0268497D03*
X0955632Y0268497D03*
X0912193Y0270859D03*
X0892712Y0270859D03*
X0788991Y0270933D03*
X0769510Y0270933D03*
X0714203Y0270926D03*
X0694722Y0270926D03*
D36*
X0704399Y0226749D03*
X0779187Y0226756D03*
X0902389Y0226682D03*
X0965309Y0224320D03*
D37*
X0725241Y0524703D03*
X0720241Y0524703D03*
X0715241Y0524703D03*
X0710241Y0524703D03*
X0710241Y0545103D03*
X0715241Y0545103D03*
X0720241Y0545103D03*
X0725241Y0545103D03*
D38*
X0849464Y0748922D03*
X0884503Y0748922D03*
D39*
X0884503Y0725694D03*
X0849464Y0725694D03*
D40*
X0860684Y0725300D03*
X0863834Y0725300D03*
X0866984Y0725300D03*
X0870133Y0725300D03*
X0873283Y0725300D03*
D41*
X0875645Y0737111D03*
X0858322Y0737111D03*
D42*
X0795901Y0682975D02*
X0789901Y0682975D01*
X0789901Y0672975D02*
X0795901Y0672975D01*
X0795901Y0662975D02*
X0789901Y0662975D01*
X0558601Y0635175D02*
X0558601Y0629175D01*
X0540801Y0629175D02*
X0540801Y0635175D01*
X0540801Y0609575D02*
X0540801Y0603575D01*
X0558601Y0603575D02*
X0558601Y0609575D01*
X0549001Y0418775D02*
X0549001Y0412775D01*
X0531201Y0412775D02*
X0531201Y0418775D01*
X0531201Y0393175D02*
X0531201Y0387175D01*
X0549001Y0387175D02*
X0549001Y0393175D01*
X0991101Y0374775D02*
X0991101Y0368775D01*
X1001101Y0368775D02*
X1001101Y0374775D01*
X1011101Y0374775D02*
X1011101Y0368775D01*
X1028401Y0431975D02*
X1028401Y0437975D01*
X1046201Y0437975D02*
X1046201Y0431975D01*
X1046201Y0457575D02*
X1046201Y0463575D01*
X1028401Y0463575D02*
X1028401Y0457575D01*
X1027201Y0642375D02*
X1027201Y0648375D01*
X1045001Y0648375D02*
X1045001Y0642375D01*
X1045001Y0667975D02*
X1045001Y0673975D01*
X1027201Y0673975D02*
X1027201Y0667975D01*
D43*
X0886301Y0554375D03*
X0876301Y0554375D03*
X0876301Y0544375D03*
X0886301Y0544375D03*
X0886301Y0534375D03*
X0886301Y0524375D03*
X0876301Y0524375D03*
X0876301Y0534375D03*
D44*
X0922701Y0588575D03*
X0918701Y0743375D03*
X0667901Y0701375D03*
X0661901Y0478575D03*
X0487901Y0324175D03*
X0601501Y0257375D03*
X0639101Y0250575D03*
X0620701Y0206975D03*
X0922501Y0346775D03*
D45*
X0922501Y0356775D03*
X0651901Y0478575D03*
X0477901Y0324175D03*
X0615501Y0257375D03*
X0649101Y0250575D03*
X0606701Y0206975D03*
X0932701Y0588575D03*
X0908701Y0743375D03*
X0657901Y0701375D03*
D46*
X1070402Y0479692D03*
X1070402Y0459692D03*
X1070402Y0439692D03*
X1070402Y0416492D03*
X1070402Y0396492D03*
X1070402Y0376492D03*
X0865217Y0198273D03*
X0845217Y0198273D03*
X0825217Y0198273D03*
X0805217Y0198273D03*
X0428817Y0200673D03*
X0408817Y0200673D03*
D47*
X0316666Y0191287D03*
X0341501Y0251775D03*
X0418654Y0242050D03*
X0422794Y0244451D03*
X0474193Y0199661D03*
X0596901Y0232634D03*
X0624266Y0276845D03*
X0563232Y0318117D03*
X0556376Y0337948D03*
X0553921Y0356610D03*
X0534846Y0369161D03*
X0526053Y0344592D03*
X0488970Y0357788D03*
X0484968Y0354507D03*
X0473738Y0359251D03*
X0458664Y0355115D03*
X0476809Y0343918D03*
X0467055Y0334164D03*
X0428267Y0343579D03*
X0407579Y0334152D03*
X0376816Y0381899D03*
X0407657Y0390618D03*
X0412369Y0386680D03*
X0385964Y0430639D03*
X0389707Y0459439D03*
X0394336Y0465281D03*
X0334466Y0431714D03*
X0323447Y0428565D03*
X0335901Y0386975D03*
X0297692Y0385731D03*
X0335901Y0331975D03*
X0296111Y0327882D03*
X0458799Y0433321D03*
X0483630Y0427345D03*
X0488534Y0425878D03*
X0493745Y0426254D03*
X0512589Y0436153D03*
X0508717Y0445375D03*
X0559869Y0435976D03*
X0584044Y0422594D03*
X0620313Y0404684D03*
X0586396Y0371905D03*
X0586407Y0346708D03*
X0594762Y0337948D03*
X0615242Y0361078D03*
X0635361Y0361078D03*
X0646677Y0356649D03*
X0702352Y0303755D03*
X0713776Y0303799D03*
X0710516Y0288380D03*
X0711864Y0259235D03*
X0680392Y0267574D03*
X0662183Y0229188D03*
X0676031Y0221310D03*
X0673502Y0217869D03*
X0662183Y0213932D03*
X0659338Y0209595D03*
X0654317Y0205816D03*
X0738959Y0231776D03*
X0742504Y0231776D03*
X0746101Y0231725D03*
X0746060Y0245162D03*
X0765578Y0285249D03*
X0775696Y0279560D03*
X0781874Y0293206D03*
X0795821Y0296842D03*
X0803922Y0287226D03*
X0800710Y0284698D03*
X0797182Y0282065D03*
X0807515Y0289783D03*
X0810387Y0307773D03*
X0807847Y0310244D03*
X0817595Y0316254D03*
X0825754Y0308808D03*
X0834919Y0315802D03*
X0843285Y0309405D03*
X0859518Y0300008D03*
X0863107Y0297468D03*
X0870834Y0292304D03*
X0873854Y0289801D03*
X0876898Y0287223D03*
X0879622Y0284601D03*
X0880059Y0266586D03*
X0883408Y0265259D03*
X0886365Y0261442D03*
X0876356Y0264930D03*
X0847653Y0282105D03*
X0867157Y0307774D03*
X0841919Y0325991D03*
X0832696Y0329114D03*
X0846872Y0344929D03*
X0875157Y0356720D03*
X0901356Y0361570D03*
X0905284Y0313397D03*
X0947219Y0271008D03*
X0931030Y0245307D03*
X0966057Y0328620D03*
X1015658Y0350436D03*
X1020478Y0350591D03*
X1053378Y0369491D03*
X1068039Y0343303D03*
X1012085Y0397987D03*
X1053178Y0432344D03*
X1021208Y0437885D03*
X1018974Y0449169D03*
X0985610Y0480002D03*
X0971730Y0509208D03*
X0965825Y0509208D03*
X0942901Y0517375D03*
X0934821Y0525448D03*
X0932160Y0549733D03*
X0954214Y0554947D03*
X0990001Y0573312D03*
X0998305Y0595822D03*
X1013889Y0559456D03*
X1019959Y0532338D03*
X1026241Y0511775D03*
X1053940Y0542673D03*
X0919394Y0629272D03*
X0927931Y0652909D03*
X0907754Y0667180D03*
X0926421Y0699658D03*
X0940136Y0719921D03*
X0949190Y0715156D03*
X0975173Y0724171D03*
X0972149Y0750083D03*
X0964631Y0749781D03*
X0952442Y0754845D03*
X0889545Y0740015D03*
X0850667Y0715901D03*
X0839237Y0711147D03*
X0815486Y0723810D03*
X0818570Y0747076D03*
X0841561Y0734578D03*
X0791981Y0718642D03*
X0775924Y0714635D03*
X0756045Y0705954D03*
X0739589Y0714349D03*
X0739599Y0737699D03*
X0765301Y0742375D03*
X0790457Y0705006D03*
X0747101Y0661375D03*
X0737701Y0665575D03*
X0727701Y0656975D03*
X0719197Y0648480D03*
X0699723Y0637386D03*
X0681396Y0647552D03*
X0656701Y0647375D03*
X0621361Y0693592D03*
X0625497Y0700073D03*
X0595254Y0722299D03*
X0614193Y0724999D03*
X0662101Y0736175D03*
X0687821Y0708896D03*
X0767701Y0635375D03*
X0767701Y0618575D03*
X0767531Y0601187D03*
X0778812Y0603907D03*
X0791498Y0617207D03*
X0798994Y0612062D03*
X0792207Y0627647D03*
X0788659Y0631255D03*
X0782684Y0648831D03*
X0815697Y0629272D03*
X0853831Y0584192D03*
X0859936Y0579634D03*
X0898501Y0570975D03*
X0906985Y0565589D03*
X0893301Y0557775D03*
X0834101Y0514175D03*
X0818101Y0481375D03*
X0823108Y0479188D03*
X0820532Y0466884D03*
X0781623Y0448252D03*
X0777120Y0448038D03*
X0763965Y0439005D03*
X0760812Y0459687D03*
X0777230Y0465129D03*
X0720863Y0452493D03*
X0716977Y0461314D03*
X0712980Y0465085D03*
X0711980Y0482267D03*
X0723299Y0486696D03*
X0724700Y0507477D03*
X0720746Y0509208D03*
X0714143Y0507805D03*
X0704506Y0508716D03*
X0699117Y0507424D03*
X0680884Y0505271D03*
X0701771Y0490725D03*
X0688901Y0477375D03*
X0690501Y0456975D03*
X0700389Y0452121D03*
X0690501Y0420175D03*
X0639607Y0452474D03*
X0635035Y0480169D03*
X0624107Y0492933D03*
X0609936Y0507200D03*
X0596730Y0517574D03*
X0591317Y0522003D03*
X0573108Y0517574D03*
X0582460Y0499157D03*
X0534255Y0506944D03*
X0524901Y0512175D03*
X0500898Y0547916D03*
X0502143Y0575861D03*
X0502261Y0601391D03*
X0460567Y0591415D03*
X0457594Y0582530D03*
X0463978Y0581263D03*
X0457588Y0563073D03*
X0458017Y0557832D03*
X0421960Y0570070D03*
X0412077Y0579235D03*
X0408539Y0581720D03*
X0420532Y0597139D03*
X0427931Y0606157D03*
X0404724Y0608088D03*
X0385008Y0640350D03*
X0382532Y0644062D03*
X0403515Y0647429D03*
X0403995Y0643258D03*
X0410027Y0642960D03*
X0425239Y0663050D03*
X0452723Y0673707D03*
X0454998Y0652909D03*
X0478620Y0665704D03*
X0486979Y0653297D03*
X0514360Y0664605D03*
X0522203Y0636797D03*
X0535938Y0698587D03*
X0530310Y0700708D03*
X0518962Y0725137D03*
X0546533Y0728204D03*
X0484526Y0734602D03*
X0478012Y0733528D03*
X0476234Y0736866D03*
X0478004Y0739786D03*
X0476307Y0743137D03*
X0452455Y0724391D03*
X0434329Y0725251D03*
X0413370Y0729248D03*
X0463519Y0700183D03*
X0470239Y0698026D03*
X0481497Y0708877D03*
X0478950Y0711735D03*
X0481399Y0714707D03*
X0478599Y0717846D03*
X0388320Y0672687D03*
X0312342Y0634004D03*
X0342769Y0588921D03*
X0359772Y0567631D03*
X0382365Y0537546D03*
X0404696Y0527052D03*
X0461356Y0502522D03*
X0479548Y0502326D03*
X0565234Y0570232D03*
X0611447Y0557117D03*
X0638036Y0567476D03*
X0650372Y0562850D03*
X0635800Y0537875D03*
X0635800Y0517974D03*
X0643974Y0503302D03*
X0652341Y0508716D03*
X0680392Y0528893D03*
X0706966Y0532338D03*
X0729112Y0543165D03*
X0684821Y0559897D03*
X0687281Y0596314D03*
X0698600Y0606157D03*
X0727583Y0618835D03*
X0737516Y0620393D03*
X0778817Y0571216D03*
X0780293Y0532338D03*
X0771435Y0525940D03*
X0793089Y0523972D03*
X0793089Y0513637D03*
X0735828Y0507682D03*
X0811371Y0403546D03*
X0816709Y0398892D03*
X0826706Y0396086D03*
X0841672Y0382038D03*
X0772911Y0356649D03*
X0774005Y0329229D03*
X0749744Y0288376D03*
X0797173Y0264514D03*
X0800710Y0264057D03*
X0803922Y0262635D03*
X0807517Y0261262D03*
X0905435Y0465915D03*
X0335357Y0746769D03*
X0320438Y0551053D03*
D48*
X0651608Y0341716D03*
D49*
X0619275Y0350600D03*
X0619610Y0356282D03*
X0562261Y0356116D03*
X0556643Y0369161D03*
X0534832Y0369175D03*
X0524880Y0412207D03*
X0566686Y0414194D03*
X0520073Y0502265D03*
X0389715Y0532082D03*
X0315202Y0559221D03*
X0312158Y0567669D03*
X0378214Y0615011D03*
X0418389Y0615152D03*
X0458755Y0634284D03*
X0384724Y0655917D03*
X0438280Y0359390D03*
X0724383Y0352184D03*
X0745887Y0352006D03*
X0763420Y0352021D03*
D50*
X0835002Y0275744D03*
X0986508Y0308940D03*
X1026101Y0308975D03*
X1052663Y0309401D03*
X0619337Y0272905D03*
X0601685Y0271692D03*
X0550175Y0309667D03*
X0543232Y0272092D03*
X0461701Y0348975D03*
X0401285Y0309591D03*
X0294805Y0293974D03*
X0284874Y0303905D03*
X0321799Y0403951D03*
X0461160Y0485276D03*
X0599701Y0635375D03*
X0382175Y0211639D03*
D51*
X0621027Y0330964D03*
X0756139Y0311828D03*
X0760435Y0316395D03*
X0809240Y0325517D03*
X0854386Y0321092D03*
X0875265Y0352109D03*
X0930968Y0306392D03*
X0930945Y0298032D03*
X0417590Y0688758D03*
D52*
X0422101Y0348975D03*
D53*
X0575413Y0552490D03*
X0603383Y0563895D03*
X0767009Y0316918D03*
X0869882Y0310228D03*
D54*
X0476420Y0426782D03*
X0451228Y0438331D03*
X0327261Y0412645D03*
D55*
X0394402Y0433099D03*
X0590825Y0492968D03*
X0626189Y0507646D03*
X0626227Y0570372D03*
X0645412Y0335115D03*
X1028693Y0262573D03*
X1079353Y0623343D03*
D56*
X0425301Y0359775D03*
X0392261Y0351268D03*
X0336501Y0610175D03*
D57*
X0478895Y0539965D03*
X0488709Y0510695D03*
M02*
